<svg xmlns="http://www.w3.org/2000/svg" version="1.1" xmlns:xlink="http://www.w3.org/1999/xlink" xmlns:svgjs="http://svgjs.dev/svgjs" width="100%" height="100%" viewBox="0 0 1000 600"><rect width="1000" height="600" x="0" y="0" fill="#050505"/><g><rect width="333.3333333333333" height="333.3333333333333" rx="13.333333333333334" ry="13.333333333333334" y="181.25557619900755" fill="#616161" transform="matrix(0.785998883175415,0,0,0.785998883175415,0,26.53354545536618)" x="159.03338623046875"/><path d="M377.34277585546056 284.608246251656L371.8243818195661 294.1695278967352Q366.27647765513746 288.6216237323065 351.8460248019161 285.87718177862644L351.8460248019161 285.87718177862644Q346.534201665761 284.81481715139535 338.0352846479128 284.81481715139535Q329.5363676300646 284.81481715139535 320.06361637058797 288.8577047605801Q310.62037523964557 292.8710822412306 303.3903937487678 301.3699992590788L303.3903937487678 301.3699992590788Q287.8975762683154 320.0794207497584 287.8975762683154 354.07508882115116Q287.8975762683154 388.0707568925438 303.3903937487678 401.67492614680776L303.3903937487678 401.67492614680776Q314.014040021078 411.2362077918869 331.5430563703899 411.2362077918869Q349.07207271970174 411.2362077918869 365.2141130279064 406.7801783832235L365.2141130279064 406.7801783832235L366.27647765513746 356.1998180756132L377.96248855467866 356.1998180756132L377.96248855467866 413.56750794608837Q368.637287937873 419.52855390999576 344.20290151155956 422.0664249639365L344.20290151155956 422.0664249639365Q337.3860618201605 422.9222186914282 329.86097904394074 422.9222186914282Q322.3063861391868 422.9222186914282 312.09588166635535 420.47287802309Q301.91488732205806 418.0235373547518 293.2093994044705 410.5869849641346L293.2093994044705 410.5869849641346Q273.43761328655984 393.7957218281777 273.43761328655984 354.72431164890344Q273.43761328655984 315.623391341095 292.14703477723947 294.25805828233774Q310.826946139385 272.92223535211474 340.3665848021142 272.92223535211474L340.3665848021142 272.92223535211474L347.1539143649791 273.3353771515935Q360.55151271950365 274.6043126785639 367.66345369624463 278.23405848826985Q374.7753946729856 281.83429416944165 377.34277585546056 284.608246251656L377.34277585546056 284.608246251656Z " fill="#050505" transform="matrix(0.785998883175415,0,0,0.785998883175415,0,26.53354545536618)"/><path d="M634.4154645380263 321.0086329715169L629.1009521101951 333.2860092753836Q625.8326690663416 331.43871885929246 622.1380882341596 331.43871885929246Q618.4719272545327 331.43871885929246 618.045629466204 331.6376578271792L618.045629466204 331.6376578271792Q610.2870097186216 331.6376578271792 602.4147105608182 337.26478863311814Q594.5139915504595 342.89191943905706 589.0005401547417 349.85478331509256L589.0005401547417 349.85478331509256L589.0005401547417 421.27387278642817L575.700049158886 421.27387278642817L575.700049158886 318.9624035875391L589.0005401547417 317.9392888955502L589.0005401547417 340.8456900550793Q596.5602209344373 331.2397798914058 601.9031532148238 327.346260091337L601.9031532148238 327.346260091337Q611.7080023463839 319.985518279528 620.7170956063972 319.5876403437546L620.7170956063972 319.5876403437546Q621.9391492662728 319.3602815233126 625.2074323101263 319.3602815233126Q628.5041352065349 319.3602815233126 634.4154645380263 321.0086329715169L634.4154645380263 321.0086329715169ZM647.9433143543238 370.9423139110858L647.9433143543238 374.21059695493926Q647.9433143543238 410.2185501424371 682.3029160936175 410.2185501424371L682.3029160936175 410.2185501424371Q696.8254607493486 410.2185501424371 708.9038980853286 406.3250303423683L708.9038980853286 406.3250303423683Q711.9732421612953 405.3019156503794 713.1952958211708 404.7050987467192L713.1952958211708 404.7050987467192L716.2646398971375 415.5330625702683Q709.1028370532152 419.85288015866587 690.2888946616418 421.6717507222017L690.2888946616418 421.6717507222017Q684.9743822338106 422.0980485105303 679.034633049764 422.0980485105303L679.034633049764 422.0980485105303Q661.8406222538397 422.0980485105303 650.3874216740751 413.48683318629054L650.3874216740751 413.48683318629054Q634.6428233584683 401.8346936386393 634.6428233584683 374.60847489071267Q634.6428233584683 347.41067599534136 648.8527496360917 332.77445192938916Q663.0626759137152 318.13822786343695 683.3260307856063 318.13822786343695Q703.5893856574974 318.13822786343695 713.8205325773863 331.2397798914058L713.8205325773863 331.2397798914058Q721.6075721775239 341.6698657791814 721.6075721775239 358.86387657510585L721.6075721775239 358.86387657510585Q721.6075721775239 362.9563353430614 721.1812743891952 367.4466720467904L721.1812743891952 367.4466720467904L648.1422533222105 367.4466720467904Q647.9433143543238 369.0950234949948 647.9433143543238 370.9423139110858L647.9433143543238 370.9423139110858ZM684.1502065097085 330.8419019556323L684.1502065097085 330.8419019556323Q671.4749522700683 330.8419019556323 662.465859010055 338.515262145549Q653.4567657500418 346.1886223354657 649.9895437383016 358.23863981889036L649.9895437383016 358.23863981889036L709.529134841544 358.23863981889036Q708.5060201495552 335.53117762724804 691.9372461098461 331.8650166476212L691.9372461098461 331.8650166476212Q688.2426652776641 330.8419019556323 684.1502065097085 330.8419019556323ZM749.004310040782 370.9423139110858L749.004310040782 374.21059695493926Q749.004310040782 410.2185501424371 783.3923316326309 410.2185501424371L783.3923316326309 410.2185501424371Q797.9148762883622 410.2185501424371 809.993313624342 406.3250303423683L809.993313624342 406.3250303423683Q813.0626577003087 405.3019156503794 814.2847113601844 404.7050987467192L814.2847113601844 404.7050987467192L817.354055436151 415.5330625702683Q810.1922525922288 419.85288015866587 791.3783102006553 421.6717507222017L791.3783102006553 421.6717507222017Q786.0637977728242 422.0980485105303 780.1240485887774 422.0980485105303L780.1240485887774 422.0980485105303Q762.9300377928531 422.0980485105303 751.4768372130885 413.48683318629054L751.4768372130885 413.48683318629054Q735.7038190449265 401.8346936386393 735.7038190449265 374.60847489071267Q735.7038190449265 347.41067599534136 749.9421651751052 332.77445192938916Q764.1520914527287 318.13822786343695 784.4154463246198 318.13822786343695Q804.6788011965109 318.13822786343695 814.9099481163997 331.2397798914058L814.9099481163997 331.2397798914058Q822.6685678639822 341.6698657791814 822.6685678639822 358.86387657510585L822.6685678639822 358.86387657510585Q822.6685678639822 362.9563353430614 822.2706899282088 367.4466720467904L822.2706899282088 367.4466720467904L749.231668861224 367.4466720467904Q749.004310040782 369.0950234949948 749.004310040782 370.9423139110858L749.004310040782 370.9423139110858ZM785.2396220487219 330.8419019556323L785.2396220487219 330.8419019556323Q772.5359479565266 330.8419019556323 763.5552745490685 338.515262145549Q754.5461812890552 346.1886223354657 751.0505394247598 358.23863981889036L751.0505394247598 358.23863981889036L810.6185503805575 358.23863981889036Q809.5954356885686 335.53117762724804 792.9982417963043 331.8650166476212L792.9982417963043 331.8650166476212Q789.3320808166775 330.8419019556323 785.2396220487219 330.8419019556323ZM853.589367444091 317.9392888955502L853.589367444091 330.2166651994169Q868.9360878239244 318.9624035875391 882.6344567555533 318.3371668313237L882.6344567555533 318.3371668313237Q895.1107720273068 318.3371668313237 901.8746969354555 321.4065109072903Q908.610201991049 324.47585498325697 913.0152791371123 330.1029857891959Q917.4203562831757 335.7301165951348 917.4203562831757 345.96126351502375L917.4203562831757 345.96126351502375L917.4203562831757 421.27387278642817L904.1198652873201 421.27387278642817L904.1198652873201 349.45690537931915Q904.1198652873201 341.86880474706817 900.8515822434666 337.7763459791126L900.8515822434666 337.7763459791126Q894.2865963032046 330.2166651994169 880.7871663394623 330.2166651994169L880.7871663394623 330.2166651994169Q867.9129731319354 330.8419019556323 853.589367444091 338.6005217032147L853.589367444091 338.6005217032147L853.589367444091 421.27387278642817L840.2888764482353 421.27387278642817L840.2888764482353 318.9624035875391L853.589367444091 317.9392888955502ZM945.2433919347624 422.92222423463255Q941.7761699230222 422.92222423463255 940.2414978850389 420.87599485065476Q938.7068258470557 418.829765466677 938.7068258470557 415.1351846344948Q938.7068258470557 411.44060380231275 940.6393758208123 409.1954354504482Q942.6003456471243 406.95026709858377 946.465445594638 406.95026709858377L946.465445594638 406.95026709858377Q953.0304315349 406.95026709858377 953.0304315349 415.33412360238157L953.0304315349 415.33412360238157Q953.0304315349 418.829765466677 950.8705227407014 420.87599485065476Q948.7390337990578 422.92222423463255 945.2433919347624 422.92222423463255ZM977.5851841426335 318.9624035875391L990.8856751384891 317.9392888955502L990.8856751384891 421.27387278642817L977.5851841426335 421.27387278642817L977.5851841426335 318.9624035875391ZM983.7238722945668 291.53724587172576Q979.6314135266111 291.53724587172576 977.4715047324124 288.8941995840878Q975.3400157907689 286.2227334438946 975.3400157907689 282.13027467593906Q975.3400157907689 278.0378159079835 977.6704437002992 275.48002917801125Q980.0292914623848 272.922242448039 984.1217502303402 272.922242448039Q988.2142089982958 272.922242448039 990.771995728268 275.48002917801125Q993.3297824582403 278.0378159079835 993.3297824582403 282.52815261171247Q993.3297824582403 287.0469091679968 990.5730567603813 289.29207751986127Q987.8163310625224 291.53724587172576 983.7238722945668 291.53724587172576ZM1019.7318254820647 395.07076873049044L1019.7318254820647 395.07076873049044Q1016.0372446498826 385.2659195989302 1016.0372446498826 372.1643675709615L1016.0372446498826 372.1643675709615Q1016.0372446498826 346.98437820701264 1030.1619113698403 332.5755129615024Q1044.286578089798 318.13822786343695 1065.573047653678 318.13822786343695L1065.573047653678 318.13822786343695Q1098.9095347009827 318.13822786343695 1109.3680404413135 345.1655076434768L1109.3680404413135 345.1655076434768Q1113.2331403888272 354.97035677503703 1113.2331403888272 368.0719088030059L1113.2331403888272 368.0719088030059Q1113.2331403888272 393.25189816695473 1099.1368935214248 407.66076341246486Q1085.012226801467 422.0980485105303 1063.725757237587 422.0980485105303L1063.725757237587 422.0980485105303Q1030.3608503377272 422.0980485105303 1019.7318254820647 395.07076873049044ZM1029.3377356457381 370.74337494319906Q1029.3377356457381 389.55731733477256 1039.0573252196327 399.90214366488254Q1048.776914793527 410.2185501424371 1064.1236351733605 410.2185501424371Q1079.4703555531937 410.2185501424371 1089.7015024730827 399.27690690866706Q1099.9326493929716 388.3352636748969 1099.9326493929716 369.4929014307682Q1099.9326493929716 350.6789590391947 1090.3267392292983 340.3341327090848Q1080.720829065625 330.01772623153016 1065.2604292755705 330.01772623153016Q1049.800029485516 330.01772623153016 1039.568882565627 340.9593694653002Q1029.3377356457381 351.90101269907035 1029.3377356457381 370.74337494319906Z " fill="#616161" transform="matrix(0.785998883175415,0,0,0.785998883175415,0,26.53354545536618)"/></g></svg>